HIERARCHY
ROOT Hips
{
  OFFSET 0 0 0
  CHANNELS 6 Xposition Yposition Zposition Zrotation Yrotation Xrotation
  JOINT LeftThigh
  {
    OFFSET 8.409438 0 -5.917753
    CHANNELS 3 Zrotation Yrotation Xrotation
    JOINT LeftLeg
    {
      OFFSET 0 0 -42.358652
      CHANNELS 3 Zrotation Yrotation Xrotation
      JOINT LeftFoot
      {
        OFFSET 0 0 -39.357303
        CHANNELS 3 Zrotation Yrotation Xrotation
      }
    }
  }
  JOINT RightThigh
  {
    OFFSET -8.409438 0 -5.917753
    CHANNELS 3 Zrotation Yrotation Xrotation
    JOINT RightLeg
    {
      OFFSET 0 0 -42.358652
      CHANNELS 3 Zrotation Yrotation Xrotation
      JOINT RightFoot
      {
        OFFSET 0 0 -39.357303
        CHANNELS 3 Zrotation Yrotation Xrotation
      }
    }
  }
  JOINT SpineLow
  {
    OFFSET 0 0 4.719101
    CHANNELS 3 Zrotation Yrotation Xrotation
    JOINT SpineMid
    {
      OFFSET 0 0 12.899191
      CHANNELS 3 Zrotation Yrotation Xrotation
      JOINT Chest
      {
        OFFSET 0 0 12.899191
        CHANNELS 3 Zrotation Yrotation Xrotation
        JOINT LeftShoulder
        {
          OFFSET 7.550562 1.41573 9.438202
          CHANNELS 3 Zrotation Yrotation Xrotation
          JOINT LeftArm
          {
            OFFSET 9.155056 0 4.247191
            CHANNELS 3 Zrotation Yrotation Xrotation
            JOINT LeftForearm
            {
              OFFSET 0 0 25.771955
              CHANNELS 3 Zrotation Yrotation Xrotation
              JOINT LeftHand
              {
                OFFSET 0 0 25.197169
                CHANNELS 3 Zrotation Yrotation Xrotation
              }
            }
          }
        }
        JOINT RightShoulder
        {
          OFFSET -7.550562 1.41573 9.438202
          CHANNELS 3 Zrotation Yrotation Xrotation
          JOINT RightArm
          {
            OFFSET -9.155056 0 4.247191
            CHANNELS 3 Zrotation Yrotation Xrotation
            JOINT RightForearm
            {
              OFFSET 0 0 -25.771955
              CHANNELS 3 Zrotation Yrotation Xrotation
              JOINT RightHand
              {
                OFFSET 0 0 -25.197169
                CHANNELS 3 Zrotation Yrotation Xrotation
              }
            }
          }
        }
        JOINT Neck
        {
          OFFSET 0 0 15.101124
          CHANNELS 3 Zrotation Yrotation Xrotation
          JOINT Head
          {
            OFFSET 0 0 11.325843
            CHANNELS 3 Zrotation Yrotation Xrotation
            End Site
            {
              OFFSET 0 0 14.157303
            }
          }
        }
      }
    }
  }
}
MOTION
Frames: 8
Frame Time: 0.0
0.0  93.25843  0.0  -5.048948  -31.509983  -92.228856  -0.874424  -21.121781  -2.887449  22.386959  -1.419624  23.680706  9.141134  2.69315  7.367883  -7.873341  -1.222145  -18.454082  -9.923788  12.980024  14.036217  18.207517  1.992118  0.503674  -1.120955  -2.316402  0.783371  -3.147656  -6.292883  2.254657  -3.147656  -6.292883  2.254657  -20.127853  33.935637  -8.245583  161.730675  72.907163  -152.011932  -3.360242  -11.184561  72.35697  86.514098  8.042226  -11.452415  -18.914829  2.233443  16.383608  51.035028  18.505415  28.511841  -34.645313  -3.499287  -121.05702  77.583692  4.606878  -32.140188  7.758763  4.044011  -0.312885  5.818728  3.029617  -0.286041  
0.0  93.25843  0.0  -5.14641  -31.868744  -92.200013  -0.32938  -21.865974  -3.692667  21.996922  -0.845957  25.452356  8.939156  2.964871  7.427865  -8.413432  -1.769951  -18.880727  -8.566684  13.421731  15.324844  18.64674  2.587629  0.32904  -1.063609  -2.318572  0.812887  -2.993392  -6.299469  2.330188  -2.993393  -6.299469  2.330188  -20.11049  33.796145  -8.271534  160.402708  72.753364  -152.799584  -3.391804  -11.620389  71.807833  86.300793  7.597544  -11.319526  -18.669957  2.375711  16.520386  51.516988  18.976424  28.215055  -34.61709  -3.70313  -121.201157  77.334439  4.720419  -32.068218  7.865833  4.168988  -0.408344  5.89956  3.122102  -0.359939  
0.0  93.25843  0.0  -5.343095  -32.106348  -92.240149  -0.186742  -22.607455  -4.493939  22.104713  -0.53005  27.669894  8.617008  3.322942  7.436387  -9.207294  -2.277058  -19.250922  -7.631381  13.859775  16.612871  18.691208  2.980299  0.178422  -1.012465  -2.334371  0.856992  -2.858106  -6.342551  2.44694  -2.858106  -6.342551  2.44694  -20.052514  33.650354  -8.186124  159.388807  72.580149  -153.233908  -3.335037  -12.128078  71.25645  86.123732  7.105071  -11.010487  -18.433045  2.534326  16.64138  52.046087  19.484207  27.986455  -34.392883  -3.896897  -121.405759  77.099196  4.877646  -31.92818  7.904985  4.304591  -0.551228  5.929839  3.221958  -0.469096  
0.0  93.25843  0.0  -5.617766  -32.170478  -92.330961  -0.046299  -23.254354  -5.330061  23.080232  -0.653304  30.755124  7.298632  3.614018  6.673933  -9.714892  -2.674575  -19.537687  -7.214337  14.387095  17.840084  18.619733  3.365974  -0.032248  -0.975386  -2.35841  0.916572  -2.763287  -6.407098  2.607798  -2.763287  -6.407099  2.607798  -20.022721  33.52568  -8.103161  158.714326  72.404013  -153.402302  -3.247996  -12.637972  70.728819  86.045377  6.53273  -10.519108  -18.115038  2.633193  16.705403  52.530331  20.020136  27.817791  -34.304811  -4.253661  -121.710782  76.90054  4.936001  -31.944856  7.880114  4.42123  -0.747746  5.912576  3.306944  -0.617765  
0.0  93.25843  0.0  -5.838002  -31.878296  -92.47954  0.323919  -23.828606  -6.316723  22.257357  -0.176157  32.771155  7.181651  3.82011  6.649117  -10.078714  -2.941482  -19.67596  -6.99961  14.923583  19.023033  18.918011  3.670216  -0.161295  -0.988606  -2.386974  0.958832  -2.804963  -6.482773  2.726275  -2.804963  -6.482773  2.726275  -20.112216  33.499659  -8.214131  158.292173  72.135915  -153.623584  -3.162673  -12.997277  70.289335  86.092835  5.957941  -9.984848  -17.664172  2.713152  16.860179  53.024622  20.656481  27.733623  -34.125051  -4.401662  -122.015869  76.694374  5.109143  -31.541741  7.858795  4.58603  -0.868083  5.897483  3.429046  -0.709942  
0.0  93.25843  0.0  -6.310479  -31.647342  -92.7921  1.269628  -24.612591  -7.046901  20.915722  0.54455  34.511009  7.307271  3.883023  6.703447  -10.190977  -3.360732  -19.278938  -7.326397  15.45474  19.90466  19.222255  3.926581  -0.26031  -0.95118  -2.443413  1.064856  -2.715683  -6.634095  3.015885  -2.715683  -6.634096  3.015885  -20.432909  33.511987  -8.570016  161.929513  71.311589  -152.4719  -2.290039  -12.899004  72.387671  86.184138  5.405233  -9.654663  -17.162077  2.663676  16.944807  52.117411  21.530763  26.595932  -33.92594  -4.522393  -122.230388  76.442836  4.845902  -31.996511  7.577046  4.667124  -1.044583  5.687647  3.488048  -0.841138  
0.0  93.25843  0.0  -6.390099  -30.749921  -93.054252  1.914429  -24.932041  -8.02231  19.571804  1.076172  36.086478  7.210876  3.948948  6.657283  -10.811188  -3.467384  -19.073697  -6.860422  15.826365  20.983677  19.378468  4.18496  -0.387402  -1.01579  -2.457194  1.085387  -2.895577  -6.667798  3.079342  -2.895577  -6.667798  3.079342  -20.462679  33.736349  -8.649326  161.875704  70.924237  -152.470442  -2.300405  -12.788418  72.101431  86.267276  4.821987  -9.75442  -16.559888  2.523822  17.230855  52.634043  22.383646  26.548303  -34.105084  -4.636765  -122.416955  76.252132  5.084148  -31.566507  7.41891  4.831007  -1.003087  5.568841  3.611729  -0.810784  
0.0  93.25843  0.0  -6.463121  -29.55979  -93.319785  2.35831  -24.992853  -8.896263  18.209622  1.288457  37.378819  7.089711  4.115841  6.667619  -11.660495  -3.587533  -18.836819  -6.632396  16.173388  22.039114  19.669652  4.534393  -0.509475  -1.084964  -2.465341  1.091784  -3.086281  -6.68644  3.104285  -3.086281  -6.686441  3.104286  -20.465782  34.012805  -8.643357  161.904154  70.432772  -152.3362  -2.345357  -12.406431  71.801494  86.413002  4.166087  -10.369623  -16.339595  2.070715  17.263061  53.544316  23.331579  26.890715  -34.164251  -4.775337  -122.486321  76.073598  5.334631  -31.285606  7.176893  4.974391  -0.89682  5.38661  3.720887  -0.730862  
